<svg xmlns="http://www.w3.org/2000/svg" viewBox="0 0 512 512">
    <defs>
        <linearGradient id="bg" x1="0%" y1="0%" x2="100%" y2="100%">
            <stop offset="0%" stop-color="#1e40af" />
            <stop offset="100%" stop-color="#3b82f6" />
        </linearGradient>
    </defs>
    <rect width="512" height="512" rx="112" fill="url(#bg)" />
    <path fill="#ffffff" d="M256 96c-88.36 0-160 71.64-160 160s71.64 160 160 160 160-71.64 160-160S344.36 96 256 96zm0 288c-70.69 0-128-57.31-128-128s57.31-128 128-128 128 57.31 128 128-57.31 128-128 128z" opacity="0.2"/>
    <path fill="#ffffff" d="M344 184H168c-13.2 0-24 10.8-24 24v160c0 13.2 10.8 24 24 24h176c13.2 0 24-10.8 24-24V208c0-13.2-10.8-24-24-24zm-8 176H176V216h160v144z"/>
    <path fill="#ffffff" d="M192 240h128v16H192zm0 48h128v16H192zm0 48h80v16h-80z"/>
</svg>
